# Blender v2.79 (sub 0) OBJ File: 'russian.blend'
# www.blender.org
mtllib russianTire.mtl
o Plane.001
v -0.274731 0.193553 0.666104
v -0.274733 -0.160944 0.665428
v 0.273137 -0.160944 0.665429
v 0.273137 0.193553 0.666104
v -0.274733 -0.467610 0.487595
v 0.273137 -0.467610 0.487596
v -0.274733 -0.644275 0.180253
v 0.273137 -0.644275 0.180255
v -0.274733 -0.643598 -0.174242
v 0.273137 -0.643598 -0.174242
v -0.274731 -0.465765 -0.480909
v 0.273137 -0.465765 -0.480909
v -0.274731 -0.158424 -0.657573
v 0.273137 -0.158424 -0.657573
v -0.274731 0.196073 -0.656897
v 0.273137 0.196073 -0.656897
v -0.274731 0.502740 -0.479064
v 0.273137 0.502740 -0.479064
v -0.274731 0.679402 -0.171722
v 0.273137 0.679403 -0.171722
v -0.274731 0.678727 0.182773
v 0.273137 0.678728 0.182773
v 0.273137 0.017566 0.004266
v -0.274731 0.500895 0.489440
v 0.273137 0.500895 0.489440
v -0.274731 0.017564 0.004265
vt 0.828500 0.126800
vt 0.814000 0.151900
vt 0.834100 0.177300
vt 0.858500 0.138800
vt 0.789000 0.166400
vt 0.793600 0.198400
vt 0.760000 0.166400
vt 0.748000 0.196500
vt 0.734900 0.152000
vt 0.709500 0.172000
vt 0.720400 0.126900
vt 0.688400 0.131500
vt 0.720300 0.097900
vt 0.690300 0.085900
vt 0.734800 0.072800
vt 0.714800 0.047400
vt 0.759900 0.058300
vt 0.755300 0.026300
vt 0.788900 0.058300
vt 0.800900 0.028200
vt 0.814000 0.072700
vt 0.839400 0.052700
vt 0.759900 0.058100
vt 0.774400 0.112400
vt 0.789000 0.058100
vt 0.828500 0.097800
vt 0.860500 0.093200
vt 0.734700 0.072600
vt 0.828700 0.126900
vt 0.814200 0.152100
vt 0.828700 0.097800
vt 0.814200 0.072600
vt 0.789000 0.166600
vt 0.759900 0.166600
vt 0.734700 0.152100
vt 0.720200 0.126900
vt 0.720200 0.097800
vt 0.774400 0.112400
vn -0.6532 0.1946 0.7317
vn -0.6532 -0.1974 0.7310
vn 0.6532 -0.1974 0.7310
vn 0.6532 0.1946 0.7317
vn -0.6532 -0.5364 0.5344
vn 0.6532 -0.5364 0.5344
vn -0.6532 -0.7317 0.1946
vn 0.6532 -0.7317 0.1946
vn -0.6532 -0.7310 -0.1974
vn 0.6532 -0.7310 -0.1974
vn -0.6532 -0.5344 -0.5364
vn 0.6532 -0.5344 -0.5364
vn -0.6532 -0.1946 -0.7317
vn 0.6532 -0.1946 -0.7317
vn -0.6532 0.1974 -0.7310
vn 0.6532 0.1974 -0.7310
vn -0.6532 0.5364 -0.5344
vn 0.6532 0.5364 -0.5344
vn -0.6532 0.7317 -0.1946
vn 0.6532 0.7317 -0.1946
vn -0.6532 0.7310 0.1974
vn 0.6532 0.7310 0.1974
vn 1.0000 0.0000 0.0000
vn -0.6532 0.5344 0.5364
vn 0.6532 0.5344 0.5364
vn -1.0000 0.0000 -0.0000
usemtl Jigul.001
s 1
f 1/1/1 2/2/2 3/3/3 4/4/4
f 2/2/2 5/5/5 6/6/6 3/3/3
f 5/5/5 7/7/7 8/8/8 6/6/6
f 7/7/7 9/9/9 10/10/10 8/8/8
f 9/9/9 11/11/11 12/12/12 10/10/10
f 11/11/11 13/13/13 14/14/14 12/12/12
f 13/13/13 15/15/15 16/16/16 14/14/14
f 15/15/15 17/17/17 18/18/18 16/16/16
f 17/17/17 19/19/19 20/20/20 18/18/18
f 19/19/19 21/21/21 22/22/22 20/20/20
f 10/23/10 23/24/23 8/25/8
f 21/21/21 24/26/24 25/27/25 22/22/22
f 24/26/24 1/1/1 4/4/4 25/27/25
f 12/28/12 23/24/23 10/23/10
f 4/29/4 23/24/23 25/30/25
f 3/31/3 23/24/23 4/29/4
f 8/25/8 23/24/23 6/32/6
f 25/30/25 23/24/23 22/33/22
f 6/32/6 23/24/23 3/31/3
f 22/33/22 23/24/23 20/34/20
f 20/34/20 23/24/23 18/35/18
f 18/35/18 23/24/23 16/36/16
f 16/36/16 23/24/23 14/37/14
f 14/37/14 23/24/23 12/28/12
f 5/5/5 26/38/26 7/7/7
f 21/21/21 26/38/26 24/26/24
f 2/2/2 26/38/26 5/5/5
f 19/19/19 26/38/26 21/21/21
f 17/17/17 26/38/26 19/19/19
f 15/15/15 26/38/26 17/17/17
f 13/13/13 26/38/26 15/15/15
f 11/11/11 26/38/26 13/13/13
f 9/9/9 26/38/26 11/11/11
f 7/7/7 26/38/26 9/9/9
f 24/26/24 26/38/26 1/1/1
f 1/1/1 26/38/26 2/2/2
