# Blender v2.79 (sub 0) OBJ File: ''
# www.blender.org
mtllib taxi2Tire.mtl
o Object_car_glass.jpg
v 0.143699 0.102766 -0.228622
v 0.143699 0.268266 -0.259837
v 0.143699 0.238222 -0.094126
v 0.143699 0.377322 0.000822
v 0.143699 0.238898 0.096759
v 0.143699 0.270122 0.262250
v 0.143699 0.104406 0.232210
v 0.143699 0.009454 0.371310
v 0.143699 -0.086474 0.232891
v 0.143699 -0.251974 0.264106
v 0.143699 -0.221930 0.098395
v 0.143699 -0.361030 0.003446
v 0.143699 -0.222606 -0.092490
v 0.143699 -0.253830 -0.257989
v 0.143699 -0.088114 -0.227942
v 0.143699 0.006834 -0.367042
v 0.209371 0.422018 -0.081722
v 0.209371 0.358426 -0.233718
v 0.228263 0.490374 -0.199617
v 0.209371 0.422606 0.083046
v 0.228471 0.491802 0.200467
v 0.209371 0.360090 0.235490
v 0.209371 0.244002 0.352415
v 0.228847 0.209910 0.484366
v 0.209371 0.091998 0.416011
v 0.209371 -0.072766 0.416590
v 0.229175 -0.190170 0.485783
v 0.209371 -0.225214 0.354082
v 0.209371 -0.342134 0.237986
v 0.246247 -0.474090 0.203890
v 0.209371 -0.405726 0.085990
v 0.209371 -0.406314 -0.078778
v 0.246043 -0.475518 -0.196194
v 0.180399 -0.525046 -0.351402
v 0.228691 -0.193614 -0.480102
v 0.180399 -0.349166 -0.528534
v 0.180399 -0.118890 -0.624873
v 0.228355 0.206466 -0.481518
v 0.180399 0.361678 -0.531054
v 0.180399 0.635154 -0.124906
v 0.180399 0.636038 0.124710
v 0.180399 0.541338 0.355666
v 0.180399 0.135182 0.629138
v 0.180399 -0.345386 0.535322
v 0.209371 -0.343798 -0.231226
v 0.209371 -0.227710 -0.348146
v 0.209371 -0.075706 -0.411742
v 0.209371 0.089054 -0.412325
v 0.209371 0.241506 -0.349814
v 0.207815 0.008142 0.002134
v -0.191193 -0.198570 -0.491953
v -0.191389 0.502234 -0.204586
v -0.191309 0.211350 -0.493409
v -0.191389 0.503690 0.205334
v -0.191309 0.214862 0.496218
v -0.157229 0.365654 0.533091
v -0.157229 0.541626 0.355858
v -0.157229 0.636382 0.124778
v -0.157229 0.130790 -0.626106
v -0.157229 -0.349362 -0.528822
v -0.190413 -0.487398 -0.201066
v -0.190413 -0.485942 0.208851
v -0.191193 -0.195058 0.497674
v -0.157229 -0.525334 -0.351594
v -0.177513 -0.587270 0.129239
v -0.157229 -0.114498 0.630371
v -0.157229 0.135254 0.629486
v -0.157229 0.635494 -0.124970
v 0.180399 0.538810 -0.355177
v -0.157229 0.539098 -0.355373
v -0.157229 0.361870 -0.531350
v 0.180399 0.130726 -0.625762
v -0.157229 -0.118962 -0.625218
v 0.180399 -0.587814 -0.120446
v -0.177513 -0.588162 -0.120514
v 0.180399 -0.586930 0.129170
v 0.180399 -0.522518 0.359446
v -0.157229 -0.522806 0.359638
v -0.157229 -0.345578 0.535618
v 0.180399 -0.114434 0.630031
v 0.180399 0.365462 0.532798
vt 0.893100 0.931600
vt 0.893900 0.947600
vt 0.909800 0.948500
vt 0.921700 0.959200
vt 0.933500 0.948600
vt 0.949500 0.947800
vt 0.950300 0.931800
vt 0.961100 0.920100
vt 0.950400 0.908100
vt 0.949700 0.892200
vt 0.933700 0.891300
vt 0.921900 0.880600
vt 0.910000 0.891200
vt 0.894100 0.892000
vt 0.893200 0.907900
vt 0.882500 0.919800
vt 0.911900 0.968900
vt 0.893900 0.961400
vt 0.897900 0.977000
vt 0.931400 0.969000
vt 0.945300 0.977200
vt 0.949500 0.961600
vt 0.963300 0.947800
vt 0.979000 0.943800
vt 0.970900 0.929800
vt 0.970900 0.910300
vt 0.979100 0.896400
vt 0.963500 0.892200
vt 0.949800 0.878400
vt 0.945700 0.862700
vt 0.931700 0.870800
vt 0.912200 0.870800
vt 0.898300 0.862600
vt 0.936900 0.849400
vt 0.907300 0.849300
vt 0.879900 0.856700
vt 0.864700 0.896000
vt 0.858900 0.877600
vt 0.847500 0.904900
vt 0.864500 0.943400
vt 0.847400 0.934400
vt 0.858600 0.961800
vt 0.879500 0.982800
vt 0.906800 0.994200
vt 0.936300 0.994300
vt 0.963700 0.983100
vt 0.984700 0.962200
vt 0.996100 0.935000
vt 0.996200 0.905400
vt 0.985000 0.878000
vt 0.964200 0.857000
vt 0.894200 0.878200
vt 0.880300 0.891900
vt 0.872800 0.910000
vt 0.872700 0.929500
vt 0.880100 0.947500
vt 0.921700 0.919900
vt 0.713900 0.885400
vt 0.745500 0.962500
vt 0.713800 0.930500
vt 0.790700 0.962700
vt 0.822700 0.930900
vt 0.826700 0.947500
vt 0.807200 0.966900
vt 0.781800 0.977300
vt 0.754300 0.977200
vt 0.728900 0.966600
vt 0.709600 0.947100
vt 0.699100 0.921600
vt 0.699200 0.894200
vt 0.709900 0.868800
vt 0.745900 0.853600
vt 0.791000 0.853800
vt 0.822800 0.885800
vt 0.729400 0.849400
vt 0.754800 0.842500
vt 0.782300 0.842600
vt 0.807600 0.849700
vt 0.827000 0.869200
vt 0.837400 0.894600
vt 0.837300 0.922100
vt 0.285400 0.884600
vt 0.320700 0.837100
vt 0.320700 0.884600
vt 0.285400 0.837100
vt 0.250000 0.884600
vt 0.250000 0.837100
vt 0.214700 0.884600
vt 0.214700 0.837100
vt 0.179400 0.884600
vt 0.179400 0.837100
vt 0.144000 0.884600
vt 0.144000 0.837100
vt 0.108700 0.837100
vt 0.108700 0.884600
vt 0.073300 0.884600
vt 0.073300 0.837100
vt 0.038000 0.884600
vt 0.038000 0.837100
vt 0.002600 0.884600
vt 0.002600 0.837100
vt 0.568200 0.837100
vt 0.568200 0.884600
vt 0.532800 0.884600
vt 0.532800 0.837100
vt 0.497500 0.884600
vt 0.497500 0.837100
vt 0.462100 0.884600
vt 0.462100 0.837100
vt 0.426800 0.837100
vt 0.426800 0.884600
vt 0.391400 0.884600
vt 0.391400 0.837100
vt 0.356100 0.884600
vt 0.356100 0.837100
vn 0.9955 0.0358 -0.0873
vn 0.8794 -0.3355 0.3378
vn 0.9955 0.0871 -0.0364
vn 0.8794 -0.4761 0.0017
vn 0.9955 0.0873 0.0358
vn 0.8794 -0.3379 -0.3355
vn 0.9955 0.0364 0.0871
vn 0.8794 -0.0017 -0.4761
vn 0.9955 -0.0358 0.0873
vn 0.8794 0.3355 -0.3379
vn 0.9955 -0.0871 0.0364
vn 0.8794 0.4761 -0.0017
vn 0.9955 -0.0873 -0.0358
vn 0.8794 0.3379 0.3355
vn 0.9955 -0.0364 -0.0871
vn 0.8794 0.0017 0.4761
vn 0.8861 -0.4526 0.0998
vn 0.8860 -0.3889 0.2524
vn 0.9900 0.1302 -0.0546
vn 0.8856 -0.4541 -0.0968
vn 0.9900 0.1308 0.0533
vn 0.8855 -0.3915 -0.2503
vn 0.8846 -0.2538 -0.3912
vn 0.9900 0.0548 0.1301
vn 0.8843 -0.1000 -0.4561
vn 0.8835 0.0972 -0.4582
vn 0.9898 -0.0449 0.1351
vn 0.8832 0.2531 -0.3947
vn 0.8429 0.4548 -0.2876
vn 0.9846 -0.1680 0.0490
vn 0.8281 0.5501 -0.1074
vn 0.8286 0.5502 0.1033
vn 0.9843 -0.1688 -0.0522
vn 0.8491 -0.5261 0.0466
vn 0.8497 -0.5256 -0.0429
vn 0.9062 -0.3341 -0.2592
vn 0.9896 -0.0497 -0.1353
vn 0.9406 -0.2086 -0.2680
vn 0.9408 -0.0439 -0.3362
vn 0.9900 0.0537 -0.1306
vn 0.9413 0.0417 -0.3349
vn 0.9414 0.2054 -0.2676
vn 0.9415 0.2658 -0.2069
vn 0.9414 0.3343 -0.0443
vn 0.9411 0.3356 0.0418
vn 0.9408 0.2691 0.2059
vn 0.9402 0.2092 0.2688
vn 0.9400 0.0450 0.3381
vn 0.9395 -0.0424 0.3399
vn 0.9284 -0.2105 0.3062
vn 0.8921 -0.3672 0.2633
vn 0.8288 0.4642 0.3124
vn 0.8698 0.2872 0.4013
vn 0.8848 0.0999 0.4552
vn 0.8856 -0.0963 0.4545
vn 0.8858 -0.2498 0.3910
vn 1.0000 -0.0000 -0.0000
vn -0.9841 -0.0693 -0.1638
vn -0.9838 0.1652 -0.0692
vn -0.9839 0.0678 -0.1657
vn -0.9838 0.1657 0.0680
vn -0.9839 0.0690 0.1652
vn -0.9633 0.1663 0.2105
vn -0.9632 0.2120 0.1652
vn -0.9632 0.2669 0.0312
vn -0.9632 0.2667 -0.0331
vn -0.9633 0.2106 -0.1667
vn -0.9634 0.1648 -0.2115
vn -0.9634 0.0309 -0.2661
vn -0.9636 -0.0329 -0.2652
vn -0.9640 -0.1656 -0.2079
vn -0.9893 -0.1246 -0.0759
vn -0.9893 -0.1240 0.0766
vn -0.9841 -0.0680 0.1644
vn -0.9683 -0.1860 -0.1666
vn -0.9876 -0.1535 -0.0338
vn -0.9876 -0.1532 0.0350
vn -0.9679 -0.1867 0.1681
vn -0.9636 -0.1643 0.2108
vn -0.9636 -0.0312 0.2657
vn -0.9634 0.0330 0.2661
vn 0.0010 0.9815 0.1916
vn 0.0010 0.8334 0.5526
vn 0.0010 0.9801 -0.1986
vn 0.0010 0.8295 -0.5585
vn 0.0010 0.5526 -0.8334
vn 0.0010 0.1916 -0.9815
vn 0.0010 -0.1986 -0.9801
vn 0.0010 -0.5585 -0.8295
vn 0.0010 -0.8660 -0.5000
vn 0.0010 -0.8695 -0.4940
vn 0.0010 -0.9650 -0.2623
vn 0.0010 -1.0000 0.0036
vn 0.0010 -1.0000 0.0035
vn 0.0010 -0.9905 0.1377
vn 0.0010 -0.9910 0.1340
vn 0.0010 -0.8624 0.5063
vn 0.0010 -0.8659 0.5003
vn 0.0010 -0.5526 0.8334
vn 0.0010 -0.1916 0.9815
vn 0.0010 0.1986 0.9801
vn 0.0010 0.5585 0.8295
usemtl mat_0-taxi_cab.jpgt
s 1
f 1/1/1 2/2/2 3/3/3
f 3/3/3 2/2/2 4/4/4
f 3/3/3 4/4/4 5/5/5
f 5/5/5 4/4/4 6/6/6
f 5/5/5 6/6/6 7/7/7
f 7/7/7 6/6/6 8/8/8
f 7/7/7 8/8/8 9/9/9
f 9/9/9 8/8/8 10/10/10
f 9/9/9 10/10/10 11/11/11
f 11/11/11 10/10/10 12/12/12
f 11/11/11 12/12/12 13/13/13
f 13/13/13 12/12/12 14/14/14
f 13/13/13 14/14/14 15/15/15
f 15/15/15 14/14/14 16/16/16
f 1/1/1 15/15/15 16/16/16
f 1/1/1 16/16/16 2/2/2
f 17/17/17 18/18/18 19/19/19
f 20/20/20 17/17/17 19/19/19
f 20/20/20 19/19/19 21/21/21
f 22/22/22 20/20/20 21/21/21
f 23/23/23 22/22/22 21/21/21
f 23/23/23 21/21/21 24/24/24
f 25/25/25 23/23/23 24/24/24
f 26/26/26 25/25/25 24/24/24
f 26/26/26 24/24/24 27/27/27
f 28/28/28 26/26/26 27/27/27
f 29/29/29 28/28/28 27/27/27
f 29/29/29 27/27/27 30/30/30
f 31/31/31 29/29/29 30/30/30
f 32/32/32 31/31/31 30/30/30
f 32/32/32 30/30/30 33/33/33
f 33/33/33 30/30/30 76/34/34
f 33/33/33 76/34/34 74/35/35
f 33/33/33 74/35/35 34/36/36
f 33/33/33 34/36/36 35/37/37
f 35/37/37 34/36/36 36/38/38
f 35/37/37 36/38/38 37/39/39
f 38/40/40 35/37/37 37/39/39
f 38/40/40 37/39/39 72/41/41
f 38/40/40 72/41/41 39/42/42
f 19/19/19 38/40/40 39/42/42
f 19/19/19 39/42/42 69/43/43
f 19/19/19 69/43/43 40/44/44
f 21/21/21 19/19/19 40/44/44
f 21/21/21 40/44/44 41/45/45
f 21/21/21 41/45/45 42/46/46
f 24/24/24 21/21/21 42/46/46
f 24/24/24 42/46/46 81/47/47
f 24/24/24 81/47/47 43/48/48
f 27/27/27 24/24/24 43/48/48
f 27/27/27 43/48/48 80/49/49
f 27/27/27 80/49/49 44/50/50
f 30/30/30 27/27/27 44/50/50
f 30/30/30 44/50/50 77/51/51
f 30/30/30 77/51/51 76/34/34
f 45/52/52 32/32/32 33/33/33
f 46/53/53 45/52/52 33/33/33
f 46/53/53 33/33/33 35/37/37
f 47/54/54 46/53/53 35/37/37
f 48/55/55 47/54/54 35/37/37
f 48/55/55 35/37/37 38/40/40
f 49/56/56 48/55/55 38/40/40
f 18/18/18 49/56/56 38/40/40
f 18/18/18 38/40/40 19/19/19
f 50/57/57 9/9/9 11/11/11
f 50/57/57 11/11/11 13/13/13
f 50/57/57 13/13/13 15/15/15
f 50/57/57 15/15/15 1/1/1
f 50/57/57 1/1/1 3/3/3
f 50/57/57 3/3/3 5/5/5
f 50/57/57 5/5/5 7/7/7
f 50/57/57 7/7/7 9/9/9
f 51/58/58 52/59/59 53/60/60
f 54/61/61 55/62/62 56/63/63
f 54/61/61 56/63/63 57/64/64
f 54/61/61 57/64/64 58/65/65
f 52/59/59 54/61/61 58/65/65
f 52/59/59 58/65/65 68/66/66
f 52/59/59 68/66/66 70/67/67
f 53/60/60 52/59/59 70/67/67
f 53/60/60 70/67/67 71/68/68
f 53/60/60 71/68/68 59/69/69
f 51/58/58 53/60/60 59/69/69
f 51/58/58 59/69/69 73/70/70
f 51/58/58 73/70/70 60/71/71
f 61/72/72 51/58/58 60/71/71
f 51/58/58 61/72/72 52/59/59
f 62/73/73 52/59/59 61/72/72
f 62/73/73 54/61/61 52/59/59
f 63/74/74 54/61/61 62/73/73
f 63/74/74 55/62/62 54/61/61
f 61/72/72 60/71/71 64/75/75
f 61/72/72 64/75/75 75/76/76
f 62/73/73 61/72/72 75/76/76
f 62/73/73 75/76/76 65/77/77
f 62/73/73 65/77/77 78/78/78
f 63/74/74 62/73/73 78/78/78
f 63/74/74 78/78/78 79/79/79
f 63/74/74 79/79/79 66/80/80
f 55/62/62 63/74/74 66/80/80
f 55/62/62 66/80/80 67/81/81
f 55/62/62 67/81/81 56/63/63
f 41/82/82 57/83/83 42/84/83
f 41/82/82 58/85/82 57/83/83
f 40/86/84 58/85/82 41/82/82
f 40/86/84 68/87/84 58/85/82
f 69/88/85 68/87/84 40/86/84
f 69/88/85 70/89/85 68/87/84
f 39/90/86 70/89/85 69/88/85
f 39/90/86 71/91/86 70/89/85
f 72/92/87 71/91/86 39/90/86
f 72/92/87 59/93/87 71/91/86
f 72/92/87 73/94/88 59/93/87
f 72/92/87 37/95/88 73/94/88
f 73/94/88 37/95/88 36/96/89
f 73/94/88 36/96/89 60/97/89
f 60/97/89 36/96/89 34/98/90
f 60/97/89 34/98/90 64/99/91
f 64/99/91 34/98/90 74/100/92
f 64/99/91 74/100/92 75/101/92
f 75/102/93 74/103/94 76/104/95
f 75/102/93 76/104/95 65/105/96
f 65/105/96 76/104/95 77/106/97
f 65/105/96 77/106/97 78/107/98
f 78/107/98 77/106/97 44/108/99
f 78/107/98 44/108/99 79/109/99
f 66/110/100 79/109/99 44/108/99
f 66/110/100 44/108/99 80/111/100
f 43/112/101 66/110/100 80/111/100
f 43/112/101 67/113/101 66/110/100
f 81/114/102 67/113/101 43/112/101
f 81/114/102 56/115/102 67/113/101
f 42/84/83 56/115/102 81/114/102
f 42/84/83 57/83/83 56/115/102
f 6/6/6 4/4/4 20/20/20
f 6/6/6 20/20/20 22/22/22
f 6/6/6 22/22/22 23/23/23
f 8/8/8 6/6/6 23/23/23
f 8/8/8 23/23/23 25/25/25
f 8/8/8 25/25/25 26/26/26
f 10/10/10 8/8/8 26/26/26
f 10/10/10 26/26/26 28/28/28
f 10/10/10 28/28/28 29/29/29
f 12/12/12 10/10/10 29/29/29
f 12/12/12 29/29/29 31/31/31
f 12/12/12 31/31/31 32/32/32
f 14/14/14 12/12/12 32/32/32
f 14/14/14 32/32/32 45/52/52
f 14/14/14 45/52/52 46/53/53
f 16/16/16 14/14/14 46/53/53
f 16/16/16 46/53/53 47/54/54
f 16/16/16 47/54/54 48/55/55
f 2/2/2 16/16/16 48/55/55
f 2/2/2 48/55/55 49/56/56
f 2/2/2 49/56/56 18/18/18
f 4/4/4 2/2/2 18/18/18
f 4/4/4 18/18/18 17/17/17
f 4/4/4 17/17/17 20/20/20
