# Blender v2.79 (sub 0) OBJ File: ''
# www.blender.org
mtllib vanTire.mtl
o Object_van1.jpg.001
v -0.202675 0.011869 -0.012986
v -0.202676 -0.082473 -0.478691
v -0.202676 -0.384145 -0.275569
v -0.202676 0.274452 -0.409002
v -0.202676 0.477578 -0.107343
v -0.202675 0.407898 0.249597
v -0.202675 0.106226 0.452708
v -0.293558 0.125384 0.547229
v -0.293558 0.488259 0.302888
v -0.293558 0.572081 -0.126487
v -0.293558 0.327743 -0.489372
v -0.293558 -0.101630 -0.573197
v -0.293558 -0.464515 -0.328856
v -0.202675 -0.453825 0.081371
v -0.202675 -0.250699 0.383032
v 0.313519 -0.426879 0.428893
v 0.258245 -0.139794 0.763897
v 0.258245 -0.425555 0.646730
v 0.258245 -0.644715 0.429109
v 0.339225 -0.610820 -0.010768
v 0.282417 -0.724407 0.144201
v 0.282417 -0.725498 -0.164650
v 0.313519 -0.429996 -0.451735
v 0.258244 -0.647832 -0.450411
v 0.258244 -0.430220 -0.669571
v 0.306967 0.009665 -0.635690
v 0.258244 -0.145304 -0.788779
v 0.258244 0.163548 -0.789883
v 0.306967 0.450619 -0.454867
v 0.301258 0.271761 -0.404945
v 0.301258 0.401975 -0.275656
v 0.301258 0.472792 -0.106376
v 0.306967 0.634573 -0.015200
v 0.301258 0.473443 0.077125
v 0.301258 0.403832 0.246892
v 0.258244 0.449307 -0.672702
v 0.258244 0.668468 -0.455091
v 0.258244 0.787666 -0.170169
v 0.258244 0.788767 0.138677
v 0.306968 0.453750 0.425767
v 0.258245 0.671586 0.424437
v 0.258245 0.453974 0.643598
v 0.306968 0.014089 0.609708
v 0.258245 0.169057 0.762811
v 0.301258 0.274540 0.377110
v 0.301258 0.105263 0.447941
v 0.301258 -0.078228 0.448591
v 0.301258 -0.248007 0.378961
v 0.301258 -0.378223 0.249674
v 0.301258 -0.449043 0.080393
v 0.301258 -0.449694 -0.103099
v 0.301258 -0.380079 -0.272878
v 0.301258 -0.250791 -0.403078
v 0.301258 -0.081511 -0.473909
v 0.301258 0.101982 -0.474560
v 0.239014 0.240700 -0.358094
v 0.239014 0.355336 -0.244255
v 0.239014 0.417704 -0.095209
v 0.239014 0.418277 0.066347
v 0.239014 0.356978 0.215829
v 0.239014 0.243138 0.330483
v 0.239014 0.094092 0.392834
v 0.239014 -0.067460 0.393412
v 0.239014 -0.216946 0.332112
v 0.239014 -0.331596 0.218287
v 0.239014 -0.393950 0.069235
v 0.239014 -0.394528 -0.092330
v 0.239014 -0.333224 -0.241816
v 0.239014 -0.219389 -0.356453
v 0.239014 -0.070352 -0.418807
v 0.239014 0.091213 -0.419380
v 0.008724 -0.672285 -0.466625
v 0.008724 -0.446614 -0.693910
v 0.008724 -0.151134 -0.817526
v 0.008724 0.169167 -0.818668
v -0.243048 0.163620 -0.790305
v -0.243048 0.449541 -0.673064
v -0.223592 0.449532 -0.673051
v -0.243048 0.788088 -0.170257
v -0.243048 0.668817 -0.455329
v -0.243048 -0.145392 -0.789205
v -0.243048 -0.430460 -0.669933
v -0.243048 -0.648195 -0.450644
v -0.259122 -0.725924 -0.164737
v 0.008724 -0.754296 -0.170270
v -0.259122 -0.724834 0.144287
v 0.008724 -0.753154 0.150023
v -0.243048 -0.645078 0.429356
v 0.008724 -0.669044 0.445497
v -0.243048 -0.425793 0.647083
v 0.008724 -0.441755 0.671168
v -0.243048 -0.139866 0.764324
v 0.008724 -0.145413 0.792695
v -0.243048 0.169144 0.763237
v 0.008724 0.174879 0.791558
v -0.243048 0.454212 0.643961
v -0.243048 0.671947 0.424676
v -0.243048 0.789193 0.138765
v -0.293558 0.602708 0.378760
v -0.293558 0.706669 -0.153754
v -0.293558 0.403631 -0.603825
v -0.293558 -0.128901 -0.707786
v -0.293558 -0.578954 -0.404747
v -0.309622 -0.682915 0.127784
v -0.293558 -0.379877 0.577839
v -0.293558 0.152641 0.681812
v -0.293558 -0.303991 0.463403
v -0.323742 -0.548332 0.100514
v 0.298958 0.217109 -0.151178
v 0.239014 0.066133 -0.290931
v 0.239014 0.246782 -0.171160
v 0.298958 0.254722 0.034418
v 0.239014 0.289819 0.041281
v 0.298958 0.150060 0.192252
v 0.239014 0.170043 0.221917
v 0.298958 -0.035531 0.229851
v 0.239014 -0.042380 0.264963
v 0.298958 -0.193355 0.125203
v 0.239014 -0.223029 0.145187
v 0.298958 -0.230968 -0.060387
v 0.239014 -0.266074 -0.067250
v 0.298958 -0.126321 -0.218225
v 0.239014 -0.146289 -0.247899
v 0.298958 0.059284 -0.255825
v 0.298958 0.011869 -0.012987
vt 0.935500 0.858100
vt 0.898300 0.850600
vt 0.914500 0.826500
vt 0.903900 0.879100
vt 0.927900 0.895300
vt 0.956400 0.889800
vt 0.972700 0.865700
vt 0.980200 0.867200
vt 0.960700 0.896200
vt 0.926400 0.902900
vt 0.897400 0.883400
vt 0.890700 0.849100
vt 0.910300 0.820100
vt 0.943000 0.820900
vt 0.967100 0.837200
vt 0.856100 0.757100
vt 0.882800 0.780000
vt 0.873500 0.757200
vt 0.856100 0.739700
vt 0.821000 0.742400
vt 0.833400 0.730100
vt 0.808700 0.730100
vt 0.785800 0.756800
vt 0.785900 0.739400
vt 0.768400 0.756800
vt 0.771100 0.791900
vt 0.758900 0.779500
vt 0.758800 0.804200
vt 0.785500 0.827100
vt 0.789500 0.812800
vt 0.799800 0.823200
vt 0.813300 0.828900
vt 0.820600 0.841800
vt 0.828000 0.828900
vt 0.841600 0.823400
vt 0.768100 0.827000
vt 0.785500 0.844500
vt 0.808300 0.854000
vt 0.832900 0.854100
vt 0.855800 0.827400
vt 0.855700 0.844800
vt 0.873200 0.827400
vt 0.870500 0.792300
vt 0.882800 0.804600
vt 0.852000 0.813100
vt 0.857600 0.799500
vt 0.857700 0.784900
vt 0.852100 0.771300
vt 0.841800 0.760900
vt 0.828300 0.755300
vt 0.813600 0.755200
vt 0.800100 0.760800
vt 0.789700 0.771100
vt 0.784000 0.784600
vt 0.783900 0.799300
vt 0.793200 0.810400
vt 0.802300 0.819500
vt 0.814200 0.824500
vt 0.827100 0.824500
vt 0.839100 0.819600
vt 0.848200 0.810600
vt 0.853200 0.798700
vt 0.853300 0.785800
vt 0.848400 0.773800
vt 0.839300 0.764700
vt 0.827400 0.759700
vt 0.814500 0.759600
vt 0.802500 0.764500
vt 0.793400 0.773600
vt 0.788400 0.785500
vt 0.788300 0.798400
vt 0.624800 0.973100
vt 0.599200 0.973100
vt 0.599200 0.949500
vt 0.624800 0.949500
vt 0.650400 0.973100
vt 0.650400 0.949500
vt 0.676000 0.973100
vt 0.676000 0.949500
vt 0.701700 0.973100
vt 0.676000 0.925600
vt 0.701700 0.925600
vt 0.701700 0.927400
vt 0.752900 0.925600
vt 0.778500 0.973100
vt 0.752900 0.973100
vt 0.727300 0.925600
vt 0.727300 0.973100
vt 0.650400 0.925600
vt 0.624800 0.925600
vt 0.599200 0.925600
vt 0.573500 0.925600
vt 0.573500 0.949500
vt 0.573500 0.973100
vt 0.957900 0.925600
vt 0.983500 0.925600
vt 0.983500 0.949500
vt 0.957900 0.949500
vt 0.932200 0.925600
vt 0.932200 0.949500
vt 0.906600 0.925600
vt 0.906600 0.949500
vt 0.881000 0.925600
vt 0.881000 0.949500
vt 0.855400 0.925600
vt 0.855400 0.949500
vt 0.829800 0.925600
vt 0.829800 0.973100
vt 0.804100 0.925600
vt 0.804100 0.973100
vt 0.778500 0.925600
vt 0.855400 0.973100
vt 0.881000 0.973100
vt 0.906600 0.973100
vt 0.932200 0.973100
vt 0.957900 0.973100
vt 0.983500 0.973100
vt 0.966800 0.905300
vt 0.987900 0.893500
vt 0.970400 0.910800
vt 0.947600 0.920200
vt 0.924200 0.913600
vt 0.922900 0.920100
vt 0.900200 0.910600
vt 0.888300 0.889400
vt 0.882800 0.893100
vt 0.873400 0.870300
vt 0.880000 0.846900
vt 0.873500 0.845600
vt 0.883000 0.822800
vt 0.904200 0.811000
vt 0.900500 0.805400
vt 0.923400 0.796100
vt 0.946700 0.802700
vt 0.948000 0.796200
vt 0.970800 0.805700
vt 0.982700 0.826900
vt 0.988200 0.823200
vt 0.997500 0.846000
vt 0.991000 0.869400
vt 0.997500 0.870700
vt 0.973500 0.832900
vt 0.944500 0.813400
vt 0.810000 0.808200
vt 0.799000 0.796300
vt 0.808400 0.810500
vt 0.824500 0.811100
vt 0.825100 0.813900
vt 0.836900 0.802900
vt 0.839200 0.804500
vt 0.839800 0.788400
vt 0.842600 0.787800
vt 0.831600 0.776000
vt 0.833200 0.773700
vt 0.817100 0.773100
vt 0.816600 0.770300
vt 0.804700 0.781300
vt 0.802400 0.779700
vt 0.801800 0.795800
vt 0.820800 0.792100
vn -1.0000 -0.0000 0.0000
vn -0.8966 0.0879 0.4340
vn -0.8966 0.3691 0.2447
vn -0.8966 -0.2447 0.3691
vn -0.8966 -0.4340 0.0880
vn -0.8966 -0.3691 -0.2447
vn -0.8966 -0.0879 -0.4340
vn -0.9587 -0.0565 -0.2787
vn -0.9587 -0.2371 -0.1572
vn -0.9587 -0.2788 0.0565
vn -0.9587 -0.1572 0.2370
vn -0.9587 0.0565 0.2788
vn -0.9555 0.2616 0.1362
vn -0.8610 0.4956 -0.1142
vn -0.8934 0.2610 -0.3658
vn 0.9894 -0.0906 0.1137
vn 0.6212 -0.1557 0.7680
vn 0.6131 -0.4285 0.6637
vn 0.5872 -0.6897 0.4237
vn 0.9918 -0.1279 0.0016
vn 0.6112 -0.7771 0.1502
vn 0.6130 -0.7759 -0.1491
vn 0.9889 -0.0919 -0.1168
vn 0.5896 -0.6921 -0.4164
vn 0.6163 -0.4293 -0.6602
vn 0.9896 0.0018 -0.1436
vn 0.6244 -0.1636 -0.7638
vn 0.6244 0.1582 -0.7649
vn 0.9898 0.1004 -0.1011
vn 0.9227 -0.2106 0.3228
vn 0.9227 -0.3213 0.2129
vn 0.9227 -0.3772 0.0794
vn 0.9898 0.1425 -0.0005
vn 0.9227 -0.3778 -0.0767
vn 0.9227 -0.3228 -0.2106
vn 0.6904 0.3969 -0.6048
vn 0.5781 0.6819 -0.4481
vn 0.5781 0.7979 -0.1710
vn 0.5781 0.7991 0.1653
vn 0.9898 0.1011 0.1004
vn 0.5781 0.6851 0.4433
vn 0.5876 0.4587 0.6666
vn 0.9898 0.0039 0.1427
vn 0.6244 0.1636 0.7638
vn 0.9227 -0.2129 -0.3213
vn 0.9228 -0.0794 -0.3771
vn 0.9227 0.0767 -0.3777
vn 0.9145 0.2241 -0.3369
vn 0.9112 0.3451 -0.2250
vn 0.8756 0.4747 -0.0889
vn 0.8611 0.4956 0.1140
vn 0.8975 0.3840 0.2168
vn 0.9112 0.2250 0.3450
vn 0.9196 0.0874 0.3830
vn 0.9227 -0.0767 0.3777
vn 0.8947 -0.2468 0.3723
vn 0.8947 -0.3705 0.2495
vn 0.8947 -0.4378 0.0887
vn 0.8947 -0.4384 -0.0856
vn 0.8947 -0.3723 -0.2468
vn 0.8947 -0.2495 -0.3705
vn 0.8947 -0.0887 -0.4377
vn 0.8947 0.0856 -0.4384
vn 0.8947 0.2468 -0.3723
vn 0.8947 0.3705 -0.2495
vn 0.8947 0.4378 -0.0887
vn 0.8947 0.4384 0.0856
vn 0.8947 0.3723 0.2468
vn 0.8947 0.2495 0.3705
vn 0.8947 0.0887 0.4377
vn 0.8947 -0.0856 0.4384
vn 0.0015 -0.8642 -0.5031
vn 0.0013 -0.5585 -0.8295
vn 0.0013 -0.1986 -0.9801
vn 0.0006 0.2112 -0.9774
vn -0.5715 0.1593 -0.8050
vn -0.3487 0.4892 -0.7994
vn -0.0290 0.7164 -0.6971
vn -0.4654 0.8675 -0.1758
vn -0.5242 0.7064 -0.4756
vn -0.5157 -0.1701 -0.8397
vn -0.5723 -0.4580 -0.6802
vn -0.5037 -0.7417 -0.4429
vn -0.5613 -0.8167 -0.1340
vn -0.0010 -0.9910 -0.1339
vn -0.3965 -0.9070 0.1420
vn -0.0005 -0.9901 0.1407
vn -0.5382 -0.7159 0.4448
vn -0.0006 -0.8604 0.5097
vn -0.5157 -0.4735 0.7141
vn 0.0013 -0.5526 0.8334
vn -0.5723 -0.1571 0.8048
vn 0.0013 -0.1916 0.9815
vn -0.5157 0.1701 0.8397
vn 0.0013 0.2177 0.9760
vn -0.5341 0.4856 0.6920
vn -0.4654 0.7377 0.4891
vn -0.5242 0.8358 0.1632
vn -0.9543 0.2491 0.1652
vn -0.9543 0.2929 -0.0593
vn -0.9543 0.1652 -0.2491
vn -0.9543 -0.0594 -0.2929
vn -0.9503 -0.2559 -0.1774
vn -0.8839 -0.4610 0.0794
vn -0.9528 -0.1621 0.2566
vn -0.9543 0.0593 0.2929
vn -0.9596 0.1736 -0.2213
vn -0.9622 0.2689 -0.0441
vn 0.8177 0.4775 -0.3216
vn 0.9210 0.0747 -0.3824
vn 0.9210 0.3232 -0.2176
vn 0.8176 0.5651 0.1103
vn 0.9210 0.3824 0.0747
vn 0.8176 0.3215 0.4776
vn 0.9210 0.2176 0.3232
vn 0.8177 -0.1103 0.5650
vn 0.9210 -0.0746 0.3824
vn 0.8177 -0.4775 0.3215
vn 0.9210 -0.3232 0.2176
vn 0.8177 -0.5651 -0.1103
vn 0.9210 -0.3824 -0.0747
vn 0.8176 -0.3216 -0.4776
vn 0.9210 -0.2176 -0.3232
vn 0.8176 0.1103 -0.5651
vn 1.0000 0.0000 0.0000
usemtl mat_3-van1t.jpg
s 1
f 1/1/1 2/2/2 3/3/3
f 1/1/1 4/4/4 2/2/2
f 1/1/1 5/5/5 4/4/4
f 1/1/1 6/6/6 5/5/5
f 1/1/1 7/7/7 6/6/6
f 6/6/6 7/7/7 8/8/8
f 6/6/6 8/8/8 9/9/9
f 5/5/5 6/6/6 9/9/9
f 5/5/5 9/9/9 10/10/10
f 4/4/4 5/5/5 10/10/10
f 4/4/4 10/10/10 11/11/11
f 2/2/2 4/4/4 11/11/11
f 2/2/2 11/11/11 12/12/12
f 3/3/3 2/2/2 12/12/12
f 3/3/3 12/12/12 13/13/13
f 14/14/14 3/3/3 13/13/13
f 1/1/1 3/3/3 14/14/14
f 1/1/1 14/14/14 15/15/15
f 1/1/1 15/15/15 7/7/7
f 16/16/16 17/17/17 18/18/18
f 16/16/16 18/18/18 19/19/19
f 20/20/20 16/16/16 19/19/19
f 20/20/20 19/19/19 21/21/21
f 20/20/20 21/21/21 22/22/22
f 23/23/23 20/20/20 22/22/22
f 23/23/23 22/22/22 24/24/24
f 23/23/23 24/24/24 25/25/25
f 26/26/26 23/23/23 25/25/25
f 26/26/26 25/25/25 27/27/27
f 26/26/26 27/27/27 28/28/28
f 29/29/29 26/26/26 28/28/28
f 30/30/30 26/26/26 29/29/29
f 31/31/31 30/30/30 29/29/29
f 32/32/32 31/31/31 29/29/29
f 32/32/32 29/29/29 33/33/33
f 34/34/34 32/32/32 33/33/33
f 35/35/35 34/34/34 33/33/33
f 29/29/29 28/28/28 36/36/36
f 29/29/29 36/36/36 37/37/37
f 33/33/33 29/29/29 37/37/37
f 33/33/33 37/37/37 38/38/38
f 33/33/33 38/38/38 39/39/39
f 40/40/40 33/33/33 39/39/39
f 40/40/40 39/39/39 41/41/41
f 40/40/40 41/41/41 42/42/42
f 43/43/43 40/40/40 42/42/42
f 43/43/43 42/42/42 44/44/44
f 43/43/43 44/44/44 17/17/17
f 16/16/16 43/43/43 17/17/17
f 35/35/35 33/33/33 40/40/40
f 45/45/45 35/35/35 40/40/40
f 46/46/46 45/45/45 40/40/40
f 46/46/46 40/40/40 43/43/43
f 47/47/47 46/46/46 43/43/43
f 48/48/48 47/47/47 43/43/43
f 48/48/48 43/43/43 16/16/16
f 49/49/49 48/48/48 16/16/16
f 50/50/50 49/49/49 16/16/16
f 50/50/50 16/16/16 20/20/20
f 51/51/51 50/50/50 20/20/20
f 52/52/52 51/51/51 20/20/20
f 52/52/52 20/20/20 23/23/23
f 53/53/53 52/52/52 23/23/23
f 54/54/54 53/53/53 23/23/23
f 54/54/54 23/23/23 26/26/26
f 55/55/55 54/54/54 26/26/26
f 30/30/30 55/55/55 26/26/26
f 56/56/56 55/55/55 30/30/30
f 57/57/57 56/56/56 30/30/30
f 57/57/57 30/30/30 31/31/31
f 58/58/58 57/57/57 31/31/31
f 58/58/58 31/31/31 32/32/32
f 59/59/59 58/58/58 32/32/32
f 59/59/59 32/32/32 34/34/34
f 60/60/60 59/59/59 34/34/34
f 60/60/60 34/34/34 35/35/35
f 61/61/61 60/60/60 35/35/35
f 61/61/61 35/35/35 45/45/45
f 62/62/62 61/61/61 45/45/45
f 62/62/62 45/45/45 46/46/46
f 63/63/63 62/62/62 46/46/46
f 63/63/63 46/46/46 47/47/47
f 64/64/64 63/63/63 47/47/47
f 64/64/64 47/47/47 48/48/48
f 65/65/65 64/64/64 48/48/48
f 65/65/65 48/48/48 49/49/49
f 66/66/66 65/65/65 49/49/49
f 66/66/66 49/49/49 50/50/50
f 67/67/67 66/66/66 50/50/50
f 67/67/67 50/50/50 51/51/51
f 68/68/68 67/67/67 51/51/51
f 68/68/68 51/51/51 52/52/52
f 69/69/69 68/68/68 52/52/52
f 69/69/69 52/52/52 53/53/53
f 70/70/70 69/69/69 53/53/53
f 70/70/70 53/53/53 54/54/54
f 71/71/71 70/70/70 54/54/54
f 71/71/71 54/54/54 55/55/55
f 56/56/56 71/71/71 55/55/55
f 25/72/25 24/73/24 72/74/72
f 25/72/25 72/74/72 73/75/73
f 27/76/27 25/72/25 73/75/73
f 27/76/27 73/75/73 74/77/74
f 28/78/28 27/76/27 74/77/74
f 28/78/28 74/77/74 75/79/75
f 28/78/28 75/79/75 36/80/36
f 76/81/76 77/82/77 78/83/78
f 79/84/79 39/85/39 38/86/38
f 80/87/80 79/84/79 38/86/38
f 80/87/80 38/86/38 37/88/37
f 77/82/77 80/87/80 37/88/37
f 77/82/77 37/88/37 36/80/36
f 77/82/77 36/80/36 78/83/78
f 36/80/36 75/79/75 78/83/78
f 76/81/76 78/83/78 75/79/75
f 81/89/81 76/81/76 75/79/75
f 81/89/81 75/79/75 74/77/74
f 82/90/82 81/89/81 74/77/74
f 82/90/82 74/77/74 73/75/73
f 83/91/83 82/90/82 73/75/73
f 83/91/83 73/75/73 72/74/72
f 84/92/84 83/91/83 72/74/72
f 84/92/84 72/74/72 85/93/85
f 24/73/24 85/93/85 72/74/72
f 24/73/24 22/94/22 85/93/85
f 86/95/86 84/96/84 85/97/85
f 86/95/86 85/97/85 87/98/87
f 88/99/88 86/95/86 87/98/87
f 88/99/88 87/98/87 89/100/89
f 90/101/90 88/99/88 89/100/89
f 90/101/90 89/100/89 91/102/91
f 92/103/92 90/101/90 91/102/91
f 92/103/92 91/102/91 93/104/93
f 94/105/94 92/103/92 93/104/93
f 94/105/94 93/104/93 95/106/95
f 94/105/94 95/106/95 96/107/96
f 96/107/96 95/106/95 42/108/42
f 97/109/97 96/107/96 42/108/42
f 97/109/97 42/108/42 41/110/41
f 98/111/98 97/109/97 41/110/41
f 98/111/98 41/110/41 39/85/39
f 79/84/79 98/111/98 39/85/39
f 44/112/44 42/108/42 95/106/95
f 17/113/17 44/112/44 95/106/95
f 17/113/17 95/106/95 93/104/93
f 18/114/18 17/113/17 93/104/93
f 18/114/18 93/104/93 91/102/91
f 19/115/19 18/114/18 91/102/91
f 19/115/19 91/102/91 89/100/89
f 21/116/21 19/115/19 89/100/89
f 21/116/21 89/100/89 87/98/87
f 22/117/22 21/116/21 87/98/87
f 22/117/22 87/98/87 85/97/85
f 99/118/99 96/119/96 97/120/97
f 99/118/99 97/120/97 98/121/98
f 99/118/99 98/121/98 100/122/100
f 100/122/100 98/121/98 79/123/79
f 100/122/100 79/123/79 80/124/80
f 100/122/100 80/124/80 101/125/101
f 101/125/101 80/124/80 77/126/77
f 101/125/101 77/126/77 76/127/76
f 101/125/101 76/127/76 102/128/102
f 102/128/102 76/127/76 81/129/81
f 102/128/102 81/129/81 82/130/82
f 102/128/102 82/130/82 103/131/103
f 103/131/103 82/130/82 83/132/83
f 103/131/103 83/132/83 84/133/84
f 103/131/103 84/133/84 104/134/104
f 104/134/104 84/133/84 86/135/86
f 104/134/104 86/135/86 88/136/88
f 104/134/104 88/136/88 105/137/105
f 105/137/105 88/136/88 90/138/90
f 105/137/105 90/138/90 92/139/92
f 105/137/105 92/139/92 106/140/106
f 106/140/106 92/139/92 94/141/94
f 106/140/106 94/141/94 96/119/96
f 106/140/106 96/119/96 99/118/99
f 7/7/7 15/15/15 107/142/107
f 7/7/7 107/142/107 8/8/8
f 8/8/8 107/142/107 105/137/105
f 8/8/8 105/137/105 106/140/106
f 9/9/9 8/8/8 106/140/106
f 9/9/9 106/140/106 99/118/99
f 10/10/10 9/9/9 99/118/99
f 10/10/10 99/118/99 100/122/100
f 11/11/11 10/10/10 100/122/100
f 11/11/11 100/122/100 101/125/101
f 12/12/12 11/11/11 101/125/101
f 12/12/12 101/125/101 102/128/102
f 13/13/13 12/12/12 102/128/102
f 13/13/13 102/128/102 103/131/103
f 108/143/108 13/13/13 103/131/103
f 108/143/108 103/131/103 104/134/104
f 107/142/107 108/143/108 104/134/104
f 107/142/107 104/134/104 105/137/105
f 14/14/14 13/13/13 108/143/108
f 15/15/15 14/14/14 108/143/108
f 15/15/15 108/143/108 107/142/107
f 109/144/109 110/145/110 111/146/111
f 112/147/112 109/144/109 111/146/111
f 112/147/112 111/146/111 113/148/113
f 114/149/114 112/147/112 113/148/113
f 114/149/114 113/148/113 115/150/115
f 116/151/116 114/149/114 115/150/115
f 116/151/116 115/150/115 117/152/117
f 118/153/118 116/151/116 117/152/117
f 118/153/118 117/152/117 119/154/119
f 120/155/120 118/153/118 119/154/119
f 120/155/120 119/154/119 121/156/121
f 122/157/122 120/155/120 121/156/121
f 122/157/122 121/156/121 123/158/123
f 124/159/124 122/157/122 123/158/123
f 124/159/124 123/158/123 110/145/110
f 109/144/109 124/159/124 110/145/110
f 115/150/115 113/148/113 60/60/60
f 115/150/115 60/60/60 61/61/61
f 115/150/115 61/61/61 62/62/62
f 117/152/117 115/150/115 62/62/62
f 117/152/117 62/62/62 63/63/63
f 117/152/117 63/63/63 64/64/64
f 119/154/119 117/152/117 64/64/64
f 119/154/119 64/64/64 65/65/65
f 119/154/119 65/65/65 66/66/66
f 121/156/121 119/154/119 66/66/66
f 121/156/121 66/66/66 67/67/67
f 121/156/121 67/67/67 68/68/68
f 123/158/123 121/156/121 68/68/68
f 123/158/123 68/68/68 69/69/69
f 123/158/123 69/69/69 70/70/70
f 110/145/110 123/158/123 70/70/70
f 110/145/110 70/70/70 71/71/71
f 110/145/110 71/71/71 56/56/56
f 111/146/111 110/145/110 56/56/56
f 111/146/111 56/56/56 57/57/57
f 111/146/111 57/57/57 58/58/58
f 113/148/113 111/146/111 58/58/58
f 113/148/113 58/58/58 59/59/59
f 113/148/113 59/59/59 60/60/60
f 125/160/125 109/144/109 112/147/112
f 125/160/125 112/147/112 114/149/114
f 125/160/125 114/149/114 116/151/116
f 125/160/125 116/151/116 118/153/118
f 125/160/125 118/153/118 120/155/120
f 125/160/125 120/155/120 122/157/122
f 125/160/125 122/157/122 124/159/124
f 125/160/125 124/159/124 109/144/109
